<?xml version="1.0" encoding="utf-8"?>
<svg width="240px" height="77.567px" viewBox="0 0 240 77.567" version="1.1" xmlns="http://www.w3.org/2000/svg" xmlns:xlink="http://www.w3.org/1999/xlink">
<title>Group 8</title>
<desc>Created with Sketch.</desc>
<g id="Symbols" stroke="none" stroke-width="1" fill="none" fill-rule="evenodd">
       <g id="Group-8" fill="#ffffff">
	<path class="st0" d="M17.1,28.6l0.2-0.2C9.6,30,4.7,33.4,4.7,33.4S10.6,35.3,17.1,28.6z"/>
	<path class="st0" d="M65.3,20.8c-1.7-4-4.2-7.7-7.3-10.8c-3.1-3.1-6.8-5.6-10.8-7.3C43,0.9,38.6,0,34,0s-9,0.9-13.2,2.7
		c-4,1.7-7.7,4.2-10.8,7.3s-5.6,6.8-7.3,10.8C0.9,24.9,0,29.4,0,34s0.9,9,2.7,13.2c1.7,4,4.2,7.7,7.3,10.8c3.1,3.1,6.8,5.6,10.8,7.3
		C24.9,67.1,29.4,68,34,68c4.6,0,9-0.9,13.2-2.7c4-1.7,7.7-4.2,10.8-7.3c3.1-3.1,5.6-6.8,7.3-10.8C67.1,43.1,68,38.6,68,34
		S67.1,24.9,65.3,20.8z M34,0.9c14.8,0,27.3,9.7,31.5,23.1c-1.5-2.8-4.6-5.8-8.7-7.3c-6.6-2.5-11.7-2.2-14.9-1.5
		c-2.6,0.6-5.9,2-8.2,4.1c-2.3,0-5.2,0.5-8.2,2.1c-5.6-4.6-11.4-6.9-15.9-6.2c-1.6,0.3-3,0.9-4,1.9C11.3,7.5,21.9,0.9,34,0.9z
		 M22.2,41.2c1.8,0,2.3-0.8,2.3-0.8c1.5-1.9-2.4-3.1-2.4-3.1c-2.7-0.8-3.5,1.4-3.5,1.4c0.5-1.4,1.3-1.9,2.9-2.3
		c3.9-1,6.4-5.3,7.4-8.5c0.2-0.8,0.7-1.8,0.9-2.3c2.2,1.7,5.7,4.1,9.8,5.9c-3.2,4.6-5.2,6.2-7.6,7.5C26.3,42.3,22.2,41.2,22.2,41.2z
		 M29.4,24.9c-1.4-1.1-2.7-2.4-3.7-3.3c2.8-1.4,5.4-1.9,7.6-2C32,20.9,30.6,22.6,29.4,24.9z M30,25.3c2.2-4.5,5.5-6.6,6.9-7.4
		c-2.4,6.5,2.3,11.1,3.5,12.4c-0.2,0.3-0.3,0.6-0.5,0.9C35.6,29.4,32.2,27,30,25.3z M37.7,25.5c-0.6-1.4-0.9-2.9-0.9-4.3
		c0-0.4,0-0.7,0.1-1.1c3.1,0.7,6.4,2,8.5,3.4c-1.4,1.1-2.8,2.7-3.9,4.8C39.1,27.7,38.1,26.2,37.7,25.5z M2.9,45.3
		c-1.3-3.5-2-7.3-2-11.3c0-5.4,1.3-10.5,3.6-15c0,0,1.5-3,5.1-3.4c4.8-0.6,9.9,1.5,15.5,6.1c-2.2,1.2-4.4,2.9-6.5,5.4
		c-0.4,0.5-0.8,0.9-1.3,1.4c0.2,0,0.4-0.1,0.6-0.1c0.4-0.4,0.7-0.8,1-1.1c2.1-2.5,4.4-4.2,6.6-5.4c0.7,0.5,2.5,2.3,3.9,3.4
		c-0.3,0.6-0.7,1.6-0.9,2c-1,0-5.4,0.1-10.6,1.2l-0.5,0.5c-3.5,3.5-6.7,4.6-8.7,5c-2.4,0.4-4.1-0.2-4.1-0.2s1.7,1.3,4.9,3
		c1.2,0.7,2.1,0.2,2.6,0c3.1-1.3,7.4,0,7.4,0c-0.2,0-1.4-0.3-2.4-0.3c-0.6,0-1.2,0-1.8,0.1c-2.5,0.3-2.5,1-2.5,1.2
		c0,0.2,0.1,0.4,0.2,0.6c0.9,0.9,7.4,3.4,10.6,3.6c0.4,0,0.6,0,0.6,0c1.7,0,2.6,1.2,3.9,2.5c1.2,1.2,2.7,2.7,5.1,4
		c-7.8,6.6-14.8,6.5-19.3,5.3C8.2,52.2,4,48.3,2.9,45.3L2.9,45.3z M64.7,46.2c-0.5,1.2-0.9,2.1-1.5,3.3c-2.3,4-7.9,3.8-12.2,2.8
		c-2.4-0.5-4.6-1.3-6.3-2l-1.6-0.6l-0.5-0.5c0,0-2-2.1-1.5-4.5c0.2-1.1,0.9-2.1,2-3c-2.7,1.4-5,3-6.5,4.2c0,0.4,0.1,0.8,0.2,1.2
		c4.4,2.6,11.9,5.1,14.1,5.5c7,1.5,9.8-0.1,11.3-1.4C56.4,60.7,45.9,67,34,67c-13.4,0-24.9-8-30.1-19.4c1.9,2.5,5.4,5.2,9.8,6.4
		c1.4,0.4,3,0.6,4.9,0.6c4.2,0,9.3-1.4,14.7-6l0.1-0.1c1.5,0.8,4.2,1.5,4.2,1.5c0,0-4.2-7.8,1.8-8.6c0,0,0,0,0,0l0,0
		c-1.2,0.3-2,0.9-2.4,1.8c-0.3,0.6-0.4,1.3-0.3,2c2-1.5,5-3.5,8.5-5.1c0,0,1.8-0.9,2.1-0.9c3.9-1.7,9.1-1.8,13-0.1l0,0
		C66,41.5,65,45.5,64.7,46.2z M65.2,44.3c0,0.2-0.1,0.5-0.1,0.7c0.2-1.4,0.1-4.3-4.5-6.4l0,0c-4.1-1.8-9.5-1.7-13.5,0.1
		c-3.7,1.7-8.2,2.4-14.6,2.7c-4,0.2-7.4,0.1-8.4,0.1l0,0c4.7,0.1,8.3-1.9,8.3-1.9c5.3-2.8,8.9-9.6,8.9-9.6c3.6-6.8,8-8.2,9.9-8.7
		c-1,1.6-3.1,5.6-0.6,9.8c0,0.1,1.1,1.8,4.5,3c0.2,0.1,0.5,0.2,0.8,0.3c2.2,0.7,6.2,2,8.2,4.8C64,39.2,65.6,41.2,65.2,44.3z
		 M50,27.8c1.8,1.8,4,3.7,6.8,4.6c-1.4-0.3-5-1.8-6.1-2.2C50.3,29.3,50.1,28.5,50,27.8z M65.1,30.3c-1,1.2-2.7,1.9-4.7,2.2
		c-4.7,0.2-7.8-2.6-10.4-5.2c-0.2-4,2.7-6.9,2.7-6.9s-3.6,0.3-7,3c-2.1-1.5-5.5-2.9-8.7-3.6c0.3-1.8,1.2-2.9,1.2-2.9
		c0.9-0.4,2.2-0.9,3.9-1.3c3.1-0.7,8.2-1,14.7,1.5c5.6,2.1,9.2,6.8,9.5,10.2C66.2,28.4,65.9,29.4,65.1,30.3z"/>

	<path class="st0" d="M89.7,7.5c0,0.5,0.3,1,0.8,1.3s1.4,0.6,2.6,0.9c1.5,0.3,2.7,0.8,3.5,1.5c0.8,0.7,1.1,1.6,1.1,2.8
		c0,1.2-0.5,2.2-1.4,3s-2.2,1.3-3.8,1.3c-1.7,0-3-0.4-4-1.2c-1-0.8-1.6-1.9-1.9-3.3l2.3-1.2c0.4,2.2,1.6,3.3,3.5,3.3
		c0.8,0,1.4-0.2,1.9-0.5c0.5-0.3,0.7-0.8,0.7-1.4c0-0.6-0.3-1.1-0.8-1.4s-1.4-0.6-2.6-0.9c-1.3-0.3-2.4-0.8-3.2-1.4
		c-0.8-0.7-1.2-1.6-1.2-2.8c0-1.2,0.5-2.1,1.4-2.8s2.1-1,3.6-1c2.7,0,4.4,1.2,5.3,3.6l-2.1,1.2C94.7,6.9,93.6,6,92,6
		c-0.7,0-1.2,0.1-1.7,0.4S89.7,7,89.7,7.5z"/>
	<path class="st0" d="M109.4,11.3V18h-2.5v-5.7c0-0.7-0.2-1.2-0.5-1.6c-0.3-0.4-0.8-0.6-1.5-0.6c-0.7,0-1.3,0.3-1.8,0.8
		c-0.5,0.5-0.7,1.2-0.7,2v5h-2.5V4h2.5v5.6c0.8-1.2,1.9-1.8,3.4-1.8c1.1,0,1.9,0.3,2.6,1C109.1,9.4,109.4,10.2,109.4,11.3z"/>
	<path class="st0" d="M121,18h-2.6c-0.3-0.4-0.5-0.9-0.5-1.6c-0.7,1.2-1.8,1.9-3.3,1.9c-1,0-1.8-0.3-2.4-0.8s-0.9-1.3-0.9-2.2
		c0-0.9,0.3-1.7,1-2.2c0.7-0.5,1.5-0.9,2.5-1.1l3-0.5v-0.4c0-1-0.6-1.5-1.8-1.5c-0.6,0-1,0.1-1.3,0.3c-0.3,0.2-0.5,0.5-0.5,0.8
		c0,0.1,0,0.2,0,0.2l-2.3,0.8c-0.1-0.3-0.2-0.5-0.2-0.8c0-0.8,0.4-1.5,1.1-2.1c0.8-0.6,1.8-0.9,3-0.9c1.4,0,2.5,0.3,3.2,0.9
		c0.7,0.6,1.1,1.5,1.1,2.7v4.1C120.4,16.5,120.6,17.4,121,18z M115.3,16.2c0.8,0,1.4-0.2,1.9-0.7c0.5-0.5,0.7-1.2,0.7-2.1v-0.2
		l-2.4,0.4c-1.1,0.2-1.7,0.7-1.7,1.5c0,0.4,0.1,0.7,0.4,0.9C114.5,16.1,114.8,16.2,115.3,16.2z"/>
	<path class="st0" d="M129,7.9l-0.4,2.4c-0.3-0.1-0.5-0.1-0.8-0.1c-0.7,0-1.3,0.3-1.8,0.8c-0.4,0.6-0.7,1.3-0.7,2.1V18h-2.5V8.1h2.5
		v1.6c0.6-1.2,1.5-1.9,2.8-1.9C128.4,7.8,128.7,7.8,129,7.9z"/>
	<path class="st0" d="M133,4v7.1l3-3h3.1l-3.6,3.5l4.1,6.4h-2.9l-3-4.6l-0.8,0.7V18h-2.5V4H133z"/>
	<path class="st0" d="M98,36l2.1,1.5c-0.9,1.3-1.8,2.3-2.7,2.9c-0.9,0.6-2.1,0.9-3.6,0.9c-2.1,0-3.8-0.7-5.1-2s-2-3.1-2-5.3
		c0-2.1,0.7-3.9,2.1-5.2c1.4-1.4,3.1-2,5.2-2c1.4,0,2.7,0.3,3.8,1s1.9,1.6,2.4,2.6l-2.1,1.5c-0.9-1.8-2.2-2.8-4.1-2.8
		c-1.3,0-2.3,0.4-3.2,1.3s-1.3,2.1-1.3,3.5c0,1.4,0.4,2.6,1.3,3.5c0.9,0.9,1.9,1.4,3.2,1.4C95.6,38.8,97,37.9,98,36z"/>
	<path class="st0" d="M110.5,32.2c1.1,0.9,1.6,2.2,1.6,3.9c0,1.6-0.5,2.9-1.6,3.8c-1.1,0.9-2.3,1.4-3.8,1.4s-2.7-0.5-3.8-1.4
		c-1.1-0.9-1.6-2.2-1.6-3.8c0-1.6,0.5-2.9,1.6-3.9c1.1-0.9,2.3-1.4,3.8-1.4S109.4,31.3,110.5,32.2z M104.6,38.1
		c0.6,0.5,1.2,0.8,2,0.8s1.4-0.3,2-0.8c0.6-0.5,0.9-1.2,0.9-2.1c0-0.9-0.3-1.6-0.9-2.1c-0.6-0.5-1.2-0.8-2-0.8s-1.4,0.3-2,0.8
		c-0.6,0.5-0.9,1.2-0.9,2.1C103.8,36.9,104.1,37.6,104.6,38.1z"/>
	<path class="st0" d="M123.4,34.2V41h-2.5v-5.7c0-1.4-0.7-2.1-2-2.1c-0.7,0-1.2,0.3-1.6,0.8c-0.4,0.5-0.7,1.2-0.7,2v5H114v-9.9h2.5
		v1.6c0.8-1.3,1.9-1.9,3.4-1.9c1.1,0,1.9,0.3,2.5,0.9C123.1,32.4,123.4,33.2,123.4,34.2z"/>
	<path class="st0" d="M127.8,33.5c0,0.6,0.8,1.1,2.3,1.4c1.2,0.2,2,0.6,2.5,1.1c0.5,0.5,0.8,1.1,0.8,2c0,1-0.4,1.8-1.1,2.4
		c-0.7,0.6-1.7,0.9-2.9,0.9c-1.1,0-2.1-0.3-2.8-0.8c-0.8-0.6-1.3-1.3-1.7-2.1l2-1.3c0.2,0.7,0.6,1.2,1,1.6c0.4,0.4,1,0.6,1.6,0.6
		c0.4,0,0.8-0.1,1.1-0.3s0.5-0.5,0.5-0.8c0-0.3-0.2-0.6-0.5-0.8s-0.9-0.4-1.6-0.5c-2.3-0.5-3.5-1.5-3.5-3.1c0-0.9,0.4-1.6,1.1-2.1
		c0.7-0.5,1.6-0.8,2.6-0.8c1.1,0,1.9,0.2,2.5,0.6c0.6,0.4,1.2,1,1.6,1.9l-1.8,1.1c-0.5-1.2-1.2-1.7-2.2-1.7
		C128.3,32.6,127.8,32.9,127.8,33.5z"/>
	<path class="st0" d="M144.9,36.6h-7.6c0.1,0.8,0.4,1.4,0.9,1.8c0.5,0.4,1.1,0.7,1.9,0.7c1.2,0,2.1-0.6,2.7-1.8l1.9,1.1
		c-0.9,1.9-2.5,2.9-4.7,2.9c-1.4,0-2.6-0.5-3.6-1.5c-1-1-1.5-2.2-1.5-3.8c0-1.5,0.5-2.8,1.5-3.8c1-1,2.2-1.5,3.7-1.5
		c1.4,0,2.6,0.5,3.5,1.4c0.9,0.9,1.4,2.1,1.4,3.6V36.6z M140,32.7c-0.7,0-1.2,0.2-1.7,0.6c-0.5,0.4-0.8,0.9-1,1.5h5.3
		c-0.1-0.7-0.4-1.2-0.9-1.5C141.3,32.9,140.7,32.7,140,32.7z"/>
	<path class="st0" d="M153.1,30.9l-0.4,2.4c-0.3-0.1-0.5-0.1-0.8-0.1c-0.7,0-1.3,0.3-1.8,0.8s-0.7,1.3-0.7,2.1V41h-2.5v-9.9h2.5v1.6
		c0.6-1.2,1.5-1.9,2.8-1.9C152.5,30.8,152.8,30.8,153.1,30.9z"/>
	<path class="st0" d="M164.4,31.1l-4,9.9h-2.4l-4-9.9h2.7l2.5,6.7l2.5-6.7H164.4z"/>
	<path class="st0" d="M174.7,41h-2.6c-0.3-0.4-0.5-0.9-0.5-1.6c-0.7,1.2-1.8,1.9-3.3,1.9c-1,0-1.8-0.3-2.4-0.8
		c-0.6-0.6-0.9-1.3-0.9-2.2c0-0.9,0.3-1.7,1-2.2c0.7-0.5,1.5-0.9,2.5-1.1l3-0.5v-0.4c0-1-0.6-1.5-1.8-1.5c-0.6,0-1,0.1-1.3,0.3
		c-0.3,0.2-0.5,0.5-0.5,0.8c0,0.1,0,0.2,0,0.2l-2.3,0.8c-0.1-0.3-0.2-0.5-0.2-0.8c0-0.8,0.4-1.5,1.1-2.1c0.8-0.6,1.8-0.9,3-0.9
		c1.4,0,2.5,0.3,3.2,0.9c0.7,0.6,1.1,1.5,1.1,2.7v4.1C174.1,39.5,174.3,40.4,174.7,41z M169,39.2c0.8,0,1.4-0.2,1.9-0.8
		c0.5-0.5,0.7-1.2,0.7-2.1v-0.2l-2.4,0.4c-1.1,0.2-1.7,0.7-1.7,1.5c0,0.4,0.1,0.7,0.4,0.9C168.2,39.1,168.5,39.2,169,39.2z"/>
	<path class="st0" d="M175.6,33.1v-2h1.5v-2.7h2.5v2.7h2.2v2h-2.2v4.5c0,0.9,0.4,1.4,1.3,1.4c0.3,0,0.6,0,0.8-0.1L182,41
		c-0.5,0.2-1.1,0.3-1.7,0.3c-2.1,0-3.2-1.1-3.2-3.2v-5H175.6z"/>
	<path class="st0" d="M183.7,29.6V27h2.8v2.6H183.7z M183.8,41v-9.9h2.5V41H183.8z"/>
	<path class="st0" d="M197.5,32.2c1.1,0.9,1.6,2.2,1.6,3.9c0,1.6-0.5,2.9-1.6,3.8c-1.1,0.9-2.3,1.4-3.8,1.4s-2.7-0.5-3.8-1.4
		c-1.1-0.9-1.6-2.2-1.6-3.8c0-1.6,0.5-2.9,1.6-3.9c1.1-0.9,2.3-1.4,3.8-1.4S196.4,31.3,197.5,32.2z M191.7,38.1
		c0.6,0.5,1.2,0.8,2,0.8s1.4-0.3,2-0.8c0.6-0.5,0.9-1.2,0.9-2.1c0-0.9-0.3-1.6-0.9-2.1c-0.6-0.5-1.2-0.8-2-0.8s-1.4,0.3-2,0.8
		c-0.6,0.5-0.9,1.2-0.9,2.1C190.8,36.9,191.1,37.6,191.7,38.1z"/>
	<path class="st0" d="M210.4,34.2V41h-2.5v-5.7c0-1.4-0.7-2.1-2-2.1c-0.7,0-1.2,0.3-1.6,0.8c-0.4,0.5-0.7,1.2-0.7,2v5h-2.5v-9.9h2.5
		v1.6c0.8-1.3,1.9-1.9,3.4-1.9c1.1,0,1.9,0.3,2.5,0.9C210.1,32.4,210.4,33.2,210.4,34.2z"/>
	<path class="st0" d="M87.1,64V50H97v2.4h-7.3V56h6.7v2.4h-6.7V64H87.1z"/>
	<path class="st0" d="M98.8,60.2v-6.2h2.5v5.6c0,1.5,0.7,2.3,2,2.3c0.7,0,1.2-0.3,1.7-0.8c0.4-0.5,0.6-1.2,0.6-2v-5.1h2.5V64h-2.5
		v-1.6c-0.7,1.2-1.7,1.8-3.2,1.8c-1.1,0-2-0.4-2.6-1.1C99.2,62.5,98.8,61.5,98.8,60.2z"/>
	<path class="st0" d="M120,57.2V64h-2.5v-5.7c0-1.4-0.7-2.1-2-2.1c-0.7,0-1.2,0.3-1.6,0.8c-0.4,0.5-0.7,1.2-0.7,2v5h-2.5v-9.9h2.5
		v1.6c0.8-1.3,1.9-1.9,3.4-1.9c1.1,0,1.9,0.3,2.5,0.9C119.6,55.4,120,56.2,120,57.2z"/>
	<path class="st0" d="M132.3,50v14h-2.5v-1.4c-0.3,0.5-0.7,0.9-1.2,1.2c-0.5,0.3-1.2,0.5-1.9,0.5c-1.4,0-2.6-0.5-3.5-1.4
		c-0.9-0.9-1.4-2.2-1.4-3.8c0-1.6,0.5-2.8,1.5-3.8c1-1,2.1-1.4,3.4-1.4c1.5,0,2.5,0.5,3.1,1.5V50H132.3z M125.1,61.1
		c0.5,0.5,1.2,0.8,2,0.8c0.8,0,1.5-0.3,2-0.8c0.5-0.5,0.8-1.2,0.8-2.1s-0.3-1.5-0.8-2.1c-0.5-0.5-1.2-0.8-2-0.8
		c-0.8,0-1.5,0.3-2,0.8c-0.5,0.5-0.8,1.2-0.8,2.1S124.6,60.6,125.1,61.1z"/>
</g>
</g>
</svg>
